<?xml version="1.0" encoding="utf-8"?>
<!-- Generator: Adobe Illustrator 15.1.0, SVG Export Plug-In . SVG Version: 6.00 Build 0)  -->
<!DOCTYPE svg PUBLIC "-//W3C//DTD SVG 1.1//EN" "http://www.w3.org/Graphics/SVG/1.1/DTD/svg11.dtd">
<svg version="1.1" id="Layer_1" xmlns="http://www.w3.org/2000/svg" xmlns:xlink="http://www.w3.org/1999/xlink" x="0px" y="0px"
	 width="100px" height="95.105px" viewBox="0 0 100 95.105" enable-background="new 0 0 100 95.105" xml:space="preserve">
<g id="XMLID_1_">
	<g>
		<polygon fill="#FFD93A" points="100,36.323 69.1,58.783 80.9,95.102 50,72.652 19.1,95.102 30.9,58.783 0,36.323 38.2,36.323 
			50,0.003 61.8,36.323 		"/>
	</g>
	<g>
	</g>
</g>
<path d="M80.9,95.105L50,72.653L19.1,95.105l11.803-36.327L0,36.327h38.195L50,0l11.805,36.327H100L69.1,58.778L80.9,95.105
	L80.9,95.105z M50,67.706l23.286,16.918L64.393,57.25l23.285-16.919H58.895L50,12.956l-8.895,27.375H12.322L35.607,57.25
	l-8.895,27.374L50,67.706L50,67.706z"/>
</svg>
